# File created by Blade
# Date/Time:  Wed Jan 21 14:43:43 2015
#---------------------------------------------------------
:version 1.10
:name HOM
:units
  mass 1.0
  length 1.000000
  angle deg
:documentation
     Acclaim Skeleton File
:root
   axis xyz
   order TX TY TZ RX RY RZ
   position 0.000000 0.000000 0.000000
   orientation 0 0 0
:bonedata
   begin
      id 1
      name Spine_dum
      direction 0.000000 1.000000 0.000000
      length 7.067664
      axis 0.0 0.0 0.0 xyz
   end
   begin
      id 2
      name LeftUpLeg_dum
      direction 1.000000 0.000000 0.000000
      length 4.013002
      axis 0.0 0.0 0.0 xyz
   end
   begin
      id 3
      name RightUpLeg_dum
      direction -1.000000 0.000000 0.000000
      length 4.013002
      axis 0.0 0.0 0.0 xyz
   end
   begin
      id 4
      name Spine
      direction 0.000000 1.000000 0.000000
      length 0.000000
      axis 0.0 0.0 0.0 xyz
      dof rx ry rz
   end
   begin
      id 5
      name Spine_dum1
      direction 0.000000 1.000000 0.000000
      length 15.039886
      axis 0.0 0.0 0.0 xyz
   end
   begin
      id 6
      name Spine_dum2
      direction 0.000000 1.000000 0.000000
      length 10.530368
      axis 0.0 0.0 0.0 xyz
   end
   begin
      id 7
      name Spine_dum3
      direction 0.000000 1.000000 0.000000
      length 10.530368
      axis 0.0 0.0 0.0 xyz
   end
   begin
      id 8
      name Head
      direction 0.000000 1.000000 0.000000
      length 4.527550
      axis 0.0 0.0 0.0 xyz
      dof rx ry rz
   end
   begin
      id 9
      name LeftShoulder
      direction 1.000000 0.000000 0.000000
      length 7.028855
      axis 0.0 0.0 -90.0 xyz
      dof rx ry rz
   end
   begin
      id 10
      name LeftArm
      direction 1.000000 0.000000 0.000000
      length 10.797705
      axis 0.0 0.0 -90.0 xyz
      dof rx ry rz
   end
   begin
      id 11
      name LeftForeArm
      direction 1.000000 0.000000 0.000000
      length 7.907442
      axis 0.0 0.0 -90.0 xyz
      dof ry rz rx
   end
   begin
      id 12
      name LeftHand
      direction 0.000000 0.000000 0.000000
      length 0.000000
      axis 0.0 0.0 -90.0 xyz
      dof rx ry rz
   end
   begin
      id 13
      name LeftHand_dum1
      direction 0.000000 0.000000 0.000000
      length 0.000000
      axis 0.0 0.0 -90.0 xyz
   end
   begin
      id 14
      name LeftHand_dum2
      direction 1.000000 0.000000 0.000000
      length 3.937000
      axis 0.0 0.0 -90.0 xyz
   end
   begin
      id 15
      name LeftHandThumb1
      direction 0.000000 0.000000 1.000000
      length 3.937000
      axis 0.0 0.0 -90.0 xyz
      dof rx rz ry
   end
   begin
      id 16
      name RightShoulder
      direction -1.000000 0.000000 0.000000
      length 7.028855
      axis 0.0 0.0 90.0 xyz
      dof rx ry rz
   end
   begin
      id 17
      name RightArm
      direction -1.000000 0.000000 0.000000
      length 10.797705
      axis 0.0 0.0 90.0 xyz
      dof rx ry rz
   end
   begin
      id 18
      name RightForeArm
      direction -1.000000 0.000000 0.000000
      length 7.907442
      axis 0.0 0.0 90.0 xyz
      dof ry rz rx
   end
   begin
      id 19
      name RightHand
      direction 0.000000 0.000000 0.000000
      length 0.000000
      axis 0.0 0.0 90.0 xyz
      dof rx ry rz
   end
   begin
      id 20
      name RightHand_dum1
      direction 0.000000 0.000000 0.000000
      length 0.000000
      axis 0.0 0.0 90.0 xyz
   end
   begin
      id 21
      name RightHand_dum2
      direction -1.000000 0.000000 0.000000
      length 3.937000
      axis 0.0 0.0 90.0 xyz
   end
   begin
      id 22
      name RightHandThumb1
      direction 0.000000 0.000000 1.000000
      length 3.937000
      axis 0.0 0.0 90.0 xyz
      dof rx rz ry
   end
   begin
      id 23
      name LeftUpLeg
      direction 0.000000 -1.000000 0.000000
      length 16.899758
      axis 0.0 0.0 0.0 xyz
      dof rx ry rz
   end
   begin
      id 24
      name LeftLeg
      direction 0.000000 -1.000000 0.000000
      length 17.389183
      axis 0.0 0.0 0.0 xyz
      dof rx ry rz
   end
   begin
      id 25
      name LeftFoot
      direction 0.000000 -0.258819 0.965926
      length 4.924528
      axis 15.0 0.0 0.0 xyz
      dof rx ry rz
   end
   begin
      id 26
      name LeftToeBase
      direction 0.000000 0.000000 1.000000
      length 2.952750
      axis 0.0 0.0 0.0 xyz
      dof rx ry rz
   end
   begin
      id 27
      name RightUpLeg
      direction 0.000000 -1.000000 0.000000
      length 16.899758
      axis 0.0 0.0 0.0 xyz
      dof rx ry rz
   end
   begin
      id 28
      name RightLeg
      direction 0.000000 -1.000000 0.000000
      length 17.389183
      axis 0.0 0.0 0.0 xyz
      dof rx ry rz
   end
   begin
      id 29
      name RightFoot
      direction 0.000000 -0.258819 0.965926
      length 4.924528
      axis 15.0 0.0 0.0 xyz
      dof rx ry rz
   end
   begin
      id 30
      name RightToeBase
      direction 0.000000 0.000000 1.000000
      length 2.952750
      axis 0.0 0.0 0.0 xyz
      dof rx ry rz
   end
:hierarchy
   begin
      root Spine_dum LeftUpLeg_dum RightUpLeg_dum
      Spine_dum Spine
      LeftUpLeg_dum LeftUpLeg
      RightUpLeg_dum RightUpLeg
      Spine Spine_dum1 Spine_dum2 Spine_dum3
      Spine_dum1 Head
      Spine_dum2 LeftShoulder
      Spine_dum3 RightShoulder
      LeftShoulder LeftArm
      LeftArm LeftForeArm
      LeftForeArm LeftHand
      LeftHand LeftHand_dum1 LeftHand_dum2
      LeftHand_dum1 LeftHandThumb1
      RightShoulder RightArm
      RightArm RightForeArm
      RightForeArm RightHand
      RightHand RightHand_dum1 RightHand_dum2
      RightHand_dum1 RightHandThumb1
      LeftUpLeg LeftLeg
      LeftLeg LeftFoot
      LeftFoot LeftToeBase
      RightUpLeg RightLeg
      RightLeg RightFoot
      RightFoot RightToeBase
   end

# File created by Blade
# Date/Time:  Wed Jan 21 14:43:55 2015
# Frame Rate: 120.000 fps
#------------------------------------------------------
:FULLY-SPECIFIED
:DEGREES
57
root 18.774669 35.272456 -22.053080 -174.600761 -2.325495 180.236447
Spine -18.443044 -0.326508 -0.002185
Head 9.762997 -2.125676 1.169124
LeftShoulder -13.763652 -32.312557 21.074347
LeftArm 6.333465 5.072898 -7.676861
LeftForeArm 11.352410 0.000000 -1.753289
LeftHand -7.893599 -0.000000 -5.009772
LeftHandThumb1 -26.253704 0.000000 33.147579
RightShoulder -12.750059 -3.115695 -9.980169
RightArm 10.128541 34.932443 9.242359
RightForeArm -37.343017 0.000000 4.406863
RightHand -7.258929 0.000000 6.002013
RightHandThumb1 -24.326973 -0.000000 -32.862282
LeftUpLeg 4.353493 8.343644 1.654114
LeftLeg -6.315317 -0.000000 0.000000
LeftFoot -22.031420 28.631912 -11.987523
LeftToeBase 27.623975 -0.000000 -0.000000
RightUpLeg 3.642175 -7.952363 -3.058265
RightLeg -2.381898 -0.000000 0.000000
RightFoot -23.469430 -23.128380 15.926605
RightToeBase 25.395426 -0.000000 -0.000000
58
root 18.774495 35.272285 -22.052377 -174.589518 -2.346410 180.226811
Spine -18.421617 -0.340808 -0.006284
Head 9.730860 -2.135419 1.171350
LeftShoulder -13.763052 -32.298513 21.080339
LeftArm 6.344992 5.083312 -7.673560
LeftForeArm 11.314149 -0.000000 -1.735560
LeftHand -7.887147 -0.000000 -4.982901
LeftHandThumb1 -26.253704 0.000000 33.147579
RightShoulder -12.753195 -3.092662 -9.979626
RightArm 10.103521 34.931342 9.227592
RightForeArm -37.332034 -0.000000 4.400456
RightHand -7.231181 -0.000000 5.996890
RightHandThumb1 -24.326973 -0.000000 -32.862282
LeftUpLeg 4.337976 8.334557 1.644384
LeftLeg -6.313384 -0.000000 0.000000
LeftFoot -22.020657 28.619929 -11.982573
LeftToeBase 27.589895 -0.000000 -0.000000
RightUpLeg 3.642938 -8.010795 -3.069869
RightLeg -2.385964 -0.000000 0.000000
RightFoot -23.468512 -23.105022 15.854917
RightToeBase 25.509076 -0.000000 -0.000000
59
root 18.775568 35.272423 -22.050030 -174.565564 -2.372177 180.225530
Spine -18.408728 -0.360200 -0.001945
Head 9.684127 -2.136125 1.183695
LeftShoulder -13.766090 -32.289918 21.094887
LeftArm 6.344187 5.061879 -7.684481
LeftForeArm 11.304578 -0.000000 -1.715855
LeftHand -7.858988 0.000000 -4.946931
LeftHandThumb1 -26.253704 0.000000 33.147579
RightShoulder -12.768954 -3.053857 -9.979234
RightArm 10.098040 34.921918 9.224425
RightForeArm -37.324618 -0.000000 4.396404
RightHand -7.237167 -0.000000 5.991617
RightHandThumb1 -24.326973 -0.000000 -32.862282
LeftUpLeg 4.307665 8.333063 1.642697
LeftLeg -6.319128 -0.000000 0.000000
LeftFoot -22.005000 28.608988 -11.969581
LeftToeBase 27.582211 -0.000000 -0.000000
RightUpLeg 3.631699 -8.003186 -3.054982
RightLeg -2.423278 -0.000000 0.000000
RightFoot -23.474769 -23.185588 15.878061
RightToeBase 25.511332 -0.000000 -0.000000
60
root 18.776631 35.272422 -22.048601 -174.540724 -2.404120 180.224254
Spine -18.404735 -0.382273 -0.001739
Head 9.659832 -2.145188 1.189332
LeftShoulder -13.760711 -32.253993 21.099784
LeftArm 6.360394 5.022891 -7.689810
LeftForeArm 11.281464 0.000000 -1.722226
LeftHand -7.816527 0.000000 -4.941140
LeftHandThumb1 -26.253704 0.000000 33.147579
RightShoulder -12.783902 -3.054611 -9.969564
RightArm 10.085566 34.910531 9.212353
RightForeArm -37.288500 0.000000 4.396505
RightHand -7.253799 -0.000000 6.002818
RightHandThumb1 -24.326973 -0.000000 -32.862282
LeftUpLeg 4.277930 8.340670 1.641750
LeftLeg -6.325257 -0.000000 0.000000
LeftFoot -22.001047 28.575357 -11.974775
LeftToeBase 27.601523 -0.000000 -0.000000
RightUpLeg 3.626144 -8.049351 -3.054630
RightLeg -2.446753 -0.000000 0.000000
RightFoot -23.430392 -23.106040 15.902955
RightToeBase 25.393690 -0.000000 -0.000000
61
root 18.777823 35.272015 -22.047226 -174.532079 -2.432448 180.217342
Spine -18.382195 -0.414715 -0.004972
Head 9.643769 -2.129308 1.202949
LeftShoulder -13.762717 -32.233639 21.109997
LeftArm 6.370743 4.996075 -7.689647
LeftForeArm 11.304325 -0.000000 -1.725742
LeftHand -7.816521 -0.000000 -4.947040
LeftHandThumb1 -26.253704 0.000000 33.147579
RightShoulder -12.779962 -3.079439 -9.941710
RightArm 10.070185 34.912083 9.181564
RightForeArm -37.230539 -0.000000 4.397600
RightHand -7.272818 -0.000000 6.018049
RightHandThumb1 -24.326973 -0.000000 -32.862282
LeftUpLeg 4.270646 8.330780 1.638480
LeftLeg -6.341010 -0.000000 0.000000
LeftFoot -21.967606 28.566502 -11.945869
LeftToeBase 27.564512 -0.000000 -0.000000
RightUpLeg 3.631639 -8.059784 -3.056768
RightLeg -2.462988 -0.000000 0.000000
RightFoot -23.449028 -23.148834 15.864293
RightToeBase 25.526704 -0.000000 -0.000000
62
root 18.779366 35.271922 -22.045884 -174.508969 -2.467512 180.219774
Spine -18.381667 -0.442937 0.003972
Head 9.645506 -2.120305 1.193847
LeftShoulder -13.745082 -32.247836 21.112025
LeftArm 6.357428 5.011096 -7.682320
LeftForeArm 11.286059 -0.000000 -1.714708
LeftHand -7.844047 -0.000000 -4.968943
LeftHandThumb1 -26.253704 0.000000 33.147579
RightShoulder -12.770777 -3.052101 -9.942713
RightArm 9.978766 34.706748 9.096216
RightForeArm -37.017353 -0.000000 4.434329
RightHand -7.242966 -0.000000 6.119518
RightHandThumb1 -24.326973 -0.000000 -32.862282
LeftUpLeg 4.240472 8.338226 1.643609
LeftLeg -6.344155 -0.000000 0.000000
LeftFoot -21.950217 28.532422 -11.919615
LeftToeBase 27.586139 -0.000000 -0.000000
RightUpLeg 3.628528 -8.073033 -3.045384
RightLeg -2.496654 -0.000000 0.000000
RightFoot -23.426246 -23.142832 15.901698
RightToeBase 25.407378 -0.000000 -0.000000
63
root 18.780076 35.271720 -22.044835 -174.486477 -2.497549 180.214187
Spine -18.378700 -0.472121 0.002466
Head 9.640152 -2.105544 1.202727
LeftShoulder -13.745768 -32.265989 21.137244
LeftArm 6.348987 5.005857 -7.694504
LeftForeArm 11.321281 0.000000 -1.713999
LeftHand -7.846767 -0.000000 -5.002532
LeftHandThumb1 -26.253704 0.000000 33.147579
RightShoulder -12.774667 -3.032895 -9.934281
RightArm 9.963967 34.658308 9.072314
RightForeArm -36.970615 0.000000 4.424601
RightHand -7.251932 -0.000000 6.143169
RightHandThumb1 -24.326973 -0.000000 -32.862282
LeftUpLeg 4.218757 8.325155 1.637743
LeftLeg -6.360897 -0.000000 0.000000
LeftFoot -21.938275 28.525546 -11.911013
LeftToeBase 27.638979 -0.000000 -0.000000
RightUpLeg 3.624551 -8.086832 -3.044442
RightLeg -2.524777 -0.000000 0.000000
RightFoot -23.424726 -23.173583 15.910148
RightToeBase 25.522932 -0.000000 -0.000000
64
root 18.780316 35.271843 -22.043823 -174.463023 -2.529507 180.207302
Spine -18.376974 -0.500836 -0.000007
Head 9.629696 -2.102064 1.211135
LeftShoulder -13.740767 -32.257903 21.141333
LeftArm 6.358217 5.008996 -7.691595
LeftForeArm 11.303401 -0.000000 -1.724633
LeftHand -7.846148 -0.000000 -5.064097
LeftHandThumb1 -26.253704 0.000000 33.147579
RightShoulder -12.798231 -3.036691 -9.914281
RightArm 10.016513 34.745426 9.089136
RightForeArm -37.091303 -0.000000 4.343973
RightHand -7.169862 0.000000 6.083721
RightHandThumb1 -24.326973 -0.000000 -32.862282
LeftUpLeg 4.192726 8.333530 1.631671
LeftLeg -6.369111 -0.000000 0.000000
LeftFoot -21.914591 28.494219 -11.900433
LeftToeBase 27.588477 -0.000000 -0.000000
RightUpLeg 3.618704 -8.085143 -3.043835
RightLeg -2.550621 -0.000000 0.000000
RightFoot -23.428213 -23.230494 15.858550
RightToeBase 25.506273 -0.000000 -0.000000
65
root 18.780809 35.272052 -22.043419 -174.432587 -2.545411 180.211154
Spine -18.391135 -0.515450 0.009117
Head 9.624988 -2.117614 1.224998
LeftShoulder -13.738335 -32.244851 21.155183
LeftArm 6.361897 5.001536 -7.701008
LeftForeArm 11.289889 -0.000000 -1.741516
LeftHand -7.858002 -0.000000 -5.089376
LeftHandThumb1 -26.253704 0.000000 33.147579
RightShoulder -12.794004 -3.042828 -9.909069
RightArm 9.991293 34.724892 9.076057
RightForeArm -37.069256 0.000000 4.365642
RightHand -7.171423 -0.000000 6.088256
RightHandThumb1 -24.326973 -0.000000 -32.862282
LeftUpLeg 4.171454 8.339163 1.633010
LeftLeg -6.396500 -0.000000 0.000000
LeftFoot -21.902057 28.482212 -11.902977
LeftToeBase 27.584403 -0.000000 -0.000000
RightUpLeg 3.597933 -8.045552 -3.026863
RightLeg -2.579636 -0.000000 0.000000
RightFoot -23.438354 -23.324391 15.884822
RightToeBase 25.539706 -0.000000 -0.000000
66
root 18.781511 35.272070 -22.043668 -174.409102 -2.576178 180.207766
Spine -18.394749 -0.533831 0.003109
Head 9.629835 -2.148764 1.229000
LeftShoulder -13.732240 -32.241698 21.165832
LeftArm 6.378902 4.986987 -7.714059
LeftForeArm 11.285297 0.000000 -1.757929
LeftHand -7.866053 0.000000 -5.087965
LeftHandThumb1 -26.253704 0.000000 33.147579
RightShoulder -12.825436 -3.037624 -9.896583
RightArm 10.001027 34.666143 9.068502
RightForeArm -36.951193 -0.000000 4.386497
RightHand -7.240931 -0.000000 6.135675
RightHandThumb1 -24.326973 -0.000000 -32.862282
LeftUpLeg 4.160648 8.348655 1.629169
LeftLeg -6.432320 -0.000000 0.000000
LeftFoot -21.865326 28.453643 -11.897135
LeftToeBase 27.581930 -0.000000 -0.000000
RightUpLeg 3.595142 -8.091481 -3.029657
RightLeg -2.595760 -0.000000 0.000000
RightFoot -23.402507 -23.233995 15.935546
RightToeBase 25.373354 -0.000000 -0.000000
67
root 18.782131 35.272193 -22.043817 -174.384821 -2.596038 180.209263
Spine -18.401328 -0.557565 0.011988
Head 9.621792 -2.159555 1.226390
LeftShoulder -13.724255 -32.248362 21.170882
LeftArm 6.369861 5.007609 -7.710043
LeftForeArm 11.262242 -0.000000 -1.778122
LeftHand -7.848320 -0.000000 -5.094037
LeftHandThumb1 -26.253704 0.000000 33.147579
RightShoulder -12.822367 -3.040528 -9.890693
RightArm 9.994514 34.683647 9.064439
RightForeArm -36.943946 -0.000000 4.369518
RightHand -7.256091 0.000000 6.111053
RightHandThumb1 -24.326973 -0.000000 -32.862282
LeftUpLeg 4.137135 8.353374 1.631251
LeftLeg -6.438689 -0.000000 0.000000
LeftFoot -21.850366 28.429321 -11.878593
LeftToeBase 27.591781 -0.000000 -0.000000
RightUpLeg 3.587571 -8.063365 -3.013202
RightLeg -2.636511 -0.000000 0.000000
RightFoot -23.401574 -23.321004 15.958364
RightToeBase 25.337047 -0.000000 -0.000000
68
root 18.782470 35.272216 -22.043675 -174.362016 -2.619922 180.208340
Spine -18.400692 -0.573505 0.013916
Head 9.599614 -2.179526 1.236241
LeftShoulder -13.709589 -32.279831 21.164839
LeftArm 6.366669 5.033551 -7.695729
LeftForeArm 11.261135 -0.000000 -1.790599
LeftHand -7.824478 0.000000 -5.097404
LeftHandThumb1 -26.253704 0.000000 33.147579
RightShoulder -12.825688 -3.053199 -9.892053
RightArm 9.959655 34.675745 9.054539
RightForeArm -36.943614 -0.000000 4.395219
RightHand -7.260338 0.000000 6.172980
RightHandThumb1 -24.326973 -0.000000 -32.862282
LeftUpLeg 4.122715 8.352286 1.628718
LeftLeg -6.465561 -0.000000 0.000000
LeftFoot -21.830904 28.422401 -11.878991
LeftToeBase 27.552011 -0.000000 -0.000000
RightUpLeg 3.583735 -8.052620 -3.010166
RightLeg -2.665871 -0.000000 0.000000
RightFoot -23.392771 -23.337840 15.960504
RightToeBase 25.355978 -0.000000 -0.000000
69
root 18.782871 35.272045 -22.044282 -174.342129 -2.660523 180.201688
Spine -18.397486 -0.614986 0.007201
Head 9.583750 -2.197962 1.258326
LeftShoulder -13.709846 -32.284094 21.177053
LeftArm 6.366687 5.055742 -7.697226
LeftForeArm 11.245394 -0.000000 -1.793331
LeftHand -7.806013 0.000000 -5.077481
LeftHandThumb1 -26.253704 0.000000 33.147579
RightShoulder -12.811750 -3.043083 -9.887589
RightArm 9.929153 34.718945 9.057136
RightForeArm -36.977107 -0.000000 4.395640
RightHand -7.259714 -0.000000 6.162428
RightHandThumb1 -24.326973 -0.000000 -32.862282
LeftUpLeg 4.109002 8.330497 1.623572
LeftLeg -6.486170 -0.000000 0.000000
LeftFoot -21.810603 28.401997 -11.875214
LeftToeBase 27.606493 -0.000000 -0.000000
RightUpLeg 3.581905 -8.124733 -3.016303
RightLeg -2.671921 -0.000000 0.000000
RightFoot -23.375346 -23.287385 15.929734
RightToeBase 25.339252 -0.000000 -0.000000
